<mxfile host="app.diagrams.net" agent="Mozilla/5.0 (Windows NT 10.0; Win64; x64) AppleWebKit/537.36 (KHTML, like Gecko) Chrome/131.0.0.0 Safari/537.36" version="26.0.6">
  <diagram name="Page-1" id="e7e014a7-5840-1c2e-5031-d8a46d1fe8dd">
    <mxGraphModel dx="1313" dy="696" grid="1" gridSize="10" guides="1" tooltips="1" connect="1" arrows="1" fold="1" page="1" pageScale="1" pageWidth="1169" pageHeight="826" background="none" math="0" shadow="0">
      <root>
        <mxCell id="0" />
        <mxCell id="1" parent="0" />
        <mxCell id="3" value="attackEnemy" style="swimlane;whiteSpace=wrap" parent="1" vertex="1">
          <mxGeometry x="710" y="490" width="810" height="750" as="geometry" />
        </mxCell>
        <mxCell id="_Sj6H3lR2v7R7_RWuAPX-70" value="" style="ellipse;shape=startState;fillColor=#000000;strokeColor=#000000;" parent="3" vertex="1">
          <mxGeometry x="365.48" y="50" width="30" height="30" as="geometry" />
        </mxCell>
        <mxCell id="-Pbv0AkEXwjADhWEen1N-90" value="" style="edgeStyle=elbowEdgeStyle;elbow=horizontal;verticalAlign=bottom;endArrow=open;endSize=8;endFill=1;rounded=0;exitX=0.48;exitY=0.856;exitDx=0;exitDy=0;exitPerimeter=0;" parent="3" source="_Sj6H3lR2v7R7_RWuAPX-70" edge="1">
          <mxGeometry x="-755" y="-258" as="geometry">
            <mxPoint x="380.48" y="150" as="targetPoint" />
            <mxPoint x="375.15" y="97" as="sourcePoint" />
            <Array as="points">
              <mxPoint x="380.48" y="120" />
            </Array>
          </mxGeometry>
        </mxCell>
        <mxCell id="-Pbv0AkEXwjADhWEen1N-139" value="enemy inÂ &#xa;attack range" style="rhombus;fontSize=9;" parent="3" vertex="1">
          <mxGeometry x="340" y="283" width="80" height="40" as="geometry" />
        </mxCell>
        <mxCell id="-Pbv0AkEXwjADhWEen1N-140" value="" style="edgeStyle=elbowEdgeStyle;elbow=horizontal;align=left;verticalAlign=bottom;endArrow=open;endSize=8;endFill=1;rounded=0;exitX=0;exitY=0.5;exitDx=0;exitDy=0;entryX=0.5;entryY=0;entryDx=0;entryDy=0;" parent="3" source="-Pbv0AkEXwjADhWEen1N-139" target="-Pbv0AkEXwjADhWEen1N-142" edge="1">
          <mxGeometry x="-1" relative="1" as="geometry">
            <mxPoint x="200.00000000000003" y="413" as="targetPoint" />
            <Array as="points">
              <mxPoint x="204.52" y="363" />
            </Array>
            <mxPoint x="119.52000000000001" y="313" as="sourcePoint" />
          </mxGeometry>
        </mxCell>
        <mxCell id="-Pbv0AkEXwjADhWEen1N-141" value="&lt;div&gt;false&lt;/div&gt;" style="edgeLabel;html=1;align=center;verticalAlign=middle;resizable=0;points=[];" parent="-Pbv0AkEXwjADhWEen1N-140" vertex="1" connectable="0">
          <mxGeometry x="0.2669" relative="1" as="geometry">
            <mxPoint y="-13" as="offset" />
          </mxGeometry>
        </mxCell>
        <mxCell id="-Pbv0AkEXwjADhWEen1N-142" value="step towards enemy" style="rounded=1;fontSize=11;" parent="3" vertex="1">
          <mxGeometry x="149.52" y="418" width="110" height="50" as="geometry" />
        </mxCell>
        <mxCell id="-Pbv0AkEXwjADhWEen1N-143" value="" style="edgeStyle=elbowEdgeStyle;elbow=horizontal;verticalAlign=bottom;endArrow=open;endSize=8;endFill=1;rounded=0;exitX=1;exitY=0.5;exitDx=0;exitDy=0;entryX=0;entryY=0.5;entryDx=0;entryDy=0;" parent="3" target="-Pbv0AkEXwjADhWEen1N-144" edge="1">
          <mxGeometry x="-1375" y="-408" as="geometry">
            <mxPoint x="249.99999999999977" y="179" as="targetPoint" />
            <mxPoint x="149.51999999999998" y="443" as="sourcePoint" />
            <Array as="points">
              <mxPoint x="110" y="310" />
            </Array>
          </mxGeometry>
        </mxCell>
        <mxCell id="-Pbv0AkEXwjADhWEen1N-144" value="enemy alive" style="rhombus;fontSize=9;" parent="3" vertex="1">
          <mxGeometry x="340" y="149" width="80" height="40" as="geometry" />
        </mxCell>
        <mxCell id="-Pbv0AkEXwjADhWEen1N-147" value="" style="edgeStyle=elbowEdgeStyle;elbow=horizontal;align=left;verticalAlign=bottom;endArrow=open;endSize=8;endFill=1;rounded=0;exitX=0.5;exitY=1;exitDx=0;exitDy=0;entryX=0.5;entryY=0;entryDx=0;entryDy=0;" parent="3" source="-Pbv0AkEXwjADhWEen1N-144" target="-Pbv0AkEXwjADhWEen1N-139" edge="1">
          <mxGeometry x="-1" relative="1" as="geometry">
            <mxPoint x="380" y="283" as="targetPoint" />
            <Array as="points" />
            <mxPoint x="374.5" y="213" as="sourcePoint" />
          </mxGeometry>
        </mxCell>
        <mxCell id="-Pbv0AkEXwjADhWEen1N-148" value="&lt;div&gt;true&lt;/div&gt;" style="edgeLabel;html=1;align=center;verticalAlign=middle;resizable=0;points=[];" parent="-Pbv0AkEXwjADhWEen1N-147" vertex="1" connectable="0">
          <mxGeometry x="0.2669" relative="1" as="geometry">
            <mxPoint y="-13" as="offset" />
          </mxGeometry>
        </mxCell>
        <mxCell id="-Pbv0AkEXwjADhWEen1N-150" value="enemy alone" style="rhombus;fontSize=9;" parent="3" vertex="1">
          <mxGeometry x="539.52" y="420" width="80" height="40" as="geometry" />
        </mxCell>
        <mxCell id="-Pbv0AkEXwjADhWEen1N-151" value="" style="edgeStyle=elbowEdgeStyle;elbow=horizontal;align=left;verticalAlign=bottom;endArrow=open;endSize=8;endFill=1;rounded=0;exitX=0;exitY=0.5;exitDx=0;exitDy=0;entryX=0.5;entryY=0;entryDx=0;entryDy=0;" parent="3" source="-Pbv0AkEXwjADhWEen1N-150" edge="1">
          <mxGeometry x="-1" relative="1" as="geometry">
            <mxPoint x="479.52" y="540" as="targetPoint" />
            <Array as="points">
              <mxPoint x="479.52" y="440" />
            </Array>
            <mxPoint x="459.52" y="460" as="sourcePoint" />
          </mxGeometry>
        </mxCell>
        <mxCell id="-Pbv0AkEXwjADhWEen1N-152" value="&lt;div&gt;true&lt;/div&gt;" style="edgeLabel;html=1;align=center;verticalAlign=middle;resizable=0;points=[];" parent="-Pbv0AkEXwjADhWEen1N-151" vertex="1" connectable="0">
          <mxGeometry x="0.2669" relative="1" as="geometry">
            <mxPoint y="-13" as="offset" />
          </mxGeometry>
        </mxCell>
        <mxCell id="-Pbv0AkEXwjADhWEen1N-153" value="" style="edgeStyle=elbowEdgeStyle;elbow=horizontal;align=left;verticalAlign=bottom;endArrow=open;endSize=8;endFill=1;rounded=0;exitX=1;exitY=0.5;exitDx=0;exitDy=0;entryX=0.5;entryY=0;entryDx=0;entryDy=0;" parent="3" source="-Pbv0AkEXwjADhWEen1N-150" target="6hp-xeay-6NReLxKR7v_-4" edge="1">
          <mxGeometry x="-1" relative="1" as="geometry">
            <mxPoint x="685" y="539.9999999999998" as="targetPoint" />
            <Array as="points">
              <mxPoint x="690" y="490" />
            </Array>
            <mxPoint x="780" y="436" as="sourcePoint" />
          </mxGeometry>
        </mxCell>
        <mxCell id="-Pbv0AkEXwjADhWEen1N-154" value="&lt;div&gt;false&lt;/div&gt;" style="edgeLabel;html=1;align=center;verticalAlign=middle;resizable=0;points=[];" parent="-Pbv0AkEXwjADhWEen1N-153" vertex="1" connectable="0">
          <mxGeometry x="0.2669" relative="1" as="geometry">
            <mxPoint y="-13" as="offset" />
          </mxGeometry>
        </mxCell>
        <mxCell id="-Pbv0AkEXwjADhWEen1N-155" value="" style="edgeStyle=elbowEdgeStyle;elbow=horizontal;align=left;verticalAlign=bottom;endArrow=open;endSize=8;endFill=1;rounded=0;exitX=1;exitY=0.5;exitDx=0;exitDy=0;entryX=0.5;entryY=0;entryDx=0;entryDy=0;" parent="3" source="-Pbv0AkEXwjADhWEen1N-139" target="-Pbv0AkEXwjADhWEen1N-150" edge="1">
          <mxGeometry x="-1" relative="1" as="geometry">
            <mxPoint x="579.52" y="403" as="targetPoint" />
            <Array as="points">
              <mxPoint x="580" y="349" />
            </Array>
            <mxPoint x="420" y="300" as="sourcePoint" />
          </mxGeometry>
        </mxCell>
        <mxCell id="-Pbv0AkEXwjADhWEen1N-156" value="&lt;div&gt;true&lt;/div&gt;" style="edgeLabel;html=1;align=center;verticalAlign=middle;resizable=0;points=[];" parent="-Pbv0AkEXwjADhWEen1N-155" vertex="1" connectable="0">
          <mxGeometry x="0.2669" relative="1" as="geometry">
            <mxPoint y="9" as="offset" />
          </mxGeometry>
        </mxCell>
        <mxCell id="-Pbv0AkEXwjADhWEen1N-159" value="" style="edgeStyle=elbowEdgeStyle;elbow=horizontal;align=left;verticalAlign=bottom;endArrow=open;endSize=8;exitX=1;exitY=0.5;endFill=1;rounded=0;exitDx=0;exitDy=0;entryX=0;entryY=0.5;entryDx=0;entryDy=0;" parent="3" source="-Pbv0AkEXwjADhWEen1N-144" target="6hp-xeay-6NReLxKR7v_-3" edge="1">
          <mxGeometry x="-1" relative="1" as="geometry">
            <mxPoint x="554.52" y="169" as="targetPoint" />
            <Array as="points">
              <mxPoint x="460" y="180" />
            </Array>
            <mxPoint x="539" y="230" as="sourcePoint" />
          </mxGeometry>
        </mxCell>
        <mxCell id="-Pbv0AkEXwjADhWEen1N-160" value="&lt;div&gt;false&lt;/div&gt;" style="edgeLabel;html=1;align=center;verticalAlign=middle;resizable=0;points=[];" parent="3" vertex="1" connectable="0">
          <mxGeometry x="480.000909090909" y="169" as="geometry" />
        </mxCell>
        <mxCell id="-Pbv0AkEXwjADhWEen1N-161" value="attack enemy" style="rounded=1;fontSize=11;" parent="3" vertex="1">
          <mxGeometry x="425" y="540" width="110" height="50" as="geometry" />
        </mxCell>
        <mxCell id="-Pbv0AkEXwjADhWEen1N-163" value="" style="edgeStyle=elbowEdgeStyle;elbow=horizontal;verticalAlign=bottom;endArrow=open;endSize=8;endFill=1;rounded=0;exitX=0;exitY=0.5;exitDx=0;exitDy=0;entryX=0;entryY=0.5;entryDx=0;entryDy=0;" parent="3" source="-Pbv0AkEXwjADhWEen1N-161" target="-Pbv0AkEXwjADhWEen1N-144" edge="1">
          <mxGeometry x="-2035" y="-558" as="geometry">
            <mxPoint x="170" y="330" as="targetPoint" />
            <mxPoint x="229.51999999999998" y="692" as="sourcePoint" />
            <Array as="points">
              <mxPoint x="90" y="370" />
            </Array>
          </mxGeometry>
        </mxCell>
        <mxCell id="6hp-xeay-6NReLxKR7v_-3" value="&lt;div align=&quot;center&quot;&gt;&lt;font style=&quot;font-size: 6px;&quot;&gt;&lt;b&gt;&lt;font style=&quot;line-height: 100%;&quot;&gt;pickupPrincess&lt;/font&gt;&lt;/b&gt;&lt;/font&gt;&lt;/div&gt;" style="rounded=0;whiteSpace=wrap;html=1;align=center;" vertex="1" parent="3">
          <mxGeometry x="554.52" y="159" width="50" height="20" as="geometry" />
        </mxCell>
        <mxCell id="6hp-xeay-6NReLxKR7v_-4" value="closest enemyÂ &#xa;has lowest HP" style="rhombus;fontSize=8;" vertex="1" parent="3">
          <mxGeometry x="650" y="545" width="80" height="40" as="geometry" />
        </mxCell>
        <mxCell id="6hp-xeay-6NReLxKR7v_-8" value="" style="edgeStyle=elbowEdgeStyle;elbow=horizontal;align=left;verticalAlign=bottom;endArrow=open;endSize=8;endFill=1;rounded=0;exitX=0;exitY=0.5;exitDx=0;exitDy=0;entryX=0.5;entryY=1;entryDx=0;entryDy=0;" edge="1" parent="3" source="6hp-xeay-6NReLxKR7v_-4" target="-Pbv0AkEXwjADhWEen1N-161">
          <mxGeometry x="-1" relative="1" as="geometry">
            <mxPoint x="630" y="730" as="targetPoint" />
            <Array as="points">
              <mxPoint x="630" y="630" />
            </Array>
            <mxPoint x="690.48" y="630" as="sourcePoint" />
          </mxGeometry>
        </mxCell>
        <mxCell id="6hp-xeay-6NReLxKR7v_-9" value="&lt;div&gt;true&lt;/div&gt;" style="edgeLabel;html=1;align=center;verticalAlign=middle;resizable=0;points=[];" vertex="1" connectable="0" parent="6hp-xeay-6NReLxKR7v_-8">
          <mxGeometry x="0.2669" relative="1" as="geometry">
            <mxPoint x="89" as="offset" />
          </mxGeometry>
        </mxCell>
        <mxCell id="6hp-xeay-6NReLxKR7v_-12" value="" style="edgeStyle=elbowEdgeStyle;elbow=horizontal;align=left;verticalAlign=bottom;endArrow=open;endSize=8;endFill=1;rounded=0;exitX=1;exitY=0.5;exitDx=0;exitDy=0;entryX=0.5;entryY=1;entryDx=0;entryDy=0;" edge="1" parent="3" source="6hp-xeay-6NReLxKR7v_-4" target="-Pbv0AkEXwjADhWEen1N-142">
          <mxGeometry x="-1" relative="1" as="geometry">
            <mxPoint x="800" y="665" as="targetPoint" />
            <Array as="points">
              <mxPoint x="630" y="670" />
            </Array>
            <mxPoint x="730" y="560" as="sourcePoint" />
          </mxGeometry>
        </mxCell>
        <mxCell id="6hp-xeay-6NReLxKR7v_-13" value="&lt;div&gt;false&lt;/div&gt;" style="edgeLabel;html=1;align=center;verticalAlign=middle;resizable=0;points=[];" vertex="1" connectable="0" parent="6hp-xeay-6NReLxKR7v_-12">
          <mxGeometry x="0.2669" relative="1" as="geometry">
            <mxPoint x="393" as="offset" />
          </mxGeometry>
        </mxCell>
      </root>
    </mxGraphModel>
  </diagram>
</mxfile>
